<svg width="32" height="32" viewBox="0 0 32 32" fill="none" xmlns="http://www.w3.org/2000/svg">
<g clip-path="url(#clip0_226_77181)">
<mask id="mask0_226_77181" style="mask-type:luminance" maskUnits="userSpaceOnUse" x="0" y="0" width="32" height="32">
<path d="M32 0H0V32H32V0Z" fill="white"/>
</mask>
<g mask="url(#mask0_226_77181)">
<path d="M26.7967 0H5.20325C2.32958 0 0 2.32958 0 5.20325V26.7967C0 29.6704 2.32958 32 5.20325 32H26.7967C29.6704 32 32 29.6704 32 26.7967V5.20325C32 2.32958 29.6704 0 26.7967 0Z" fill="#BAFF00"/>
<path d="M21.0731 11.9022C19.0959 7.47948 16.2601 6.98079 15.0894 7.28435C18.4715 0.520097 22.6341 4.42254 25.0406 6.30872C27.4471 8.1949 24.065 11.9022 24.065 13.2681C24.065 14.3607 25.6693 16.7585 26.4715 17.8209C25.4959 17.6908 23.0504 16.325 21.0731 11.9022Z" fill="#141414"/>
<path d="M4.79096 19.1219C6.19584 18.1853 8.34706 15.3929 9.36604 14.439C9.5755 15.3062 10.5358 17.782 11.7503 18.1462C10.0853 19.239 6.11403 20.943 3.4251 21.4633C3.29502 21.0731 3.38608 20.0585 4.79096 19.1219Z" fill="#141414"/>
<path d="M12.5526 32.0001C16.7152 27.8375 19.9673 18.4717 20.4876 14.3091C18.0378 14.3091 12.8128 15.3628 13.073 18.7969C13.3331 22.231 7.76132 29.03 4.94287 32.0001H12.5526Z" fill="#141414"/>
<path d="M14.6994 19.7723C17.9322 19.7723 20.553 17.1515 20.553 13.9186C20.553 10.6857 17.9322 8.06494 14.6994 8.06494C11.4665 8.06494 8.8457 10.6857 8.8457 13.9186C8.8457 17.1515 11.4665 19.7723 14.6994 19.7723Z" fill="#141414"/>
<path d="M15.4215 11.8374C14.0084 13.0965 12.1183 13.6563 11.3823 13.9187C11.7993 14.5149 12.6576 15.6621 14.3092 14.8943C15.8361 14.1846 15.6913 12.4574 15.4215 11.8374Z" fill="#BAFF00"/>
<path d="M3.68299 3.09477C3.72184 3.08367 3.75791 3.07535 3.79121 3.0698C3.82452 3.0587 3.85782 3.05037 3.89111 3.04481C3.92997 3.03372 3.97714 3.02817 4.03265 3.02817C4.09369 3.02261 4.1492 3.0254 4.19915 3.03649C4.25465 3.04204 4.3046 3.0587 4.349 3.08644C4.39895 3.10865 4.43502 3.14472 4.45723 3.19467C4.47943 3.25017 4.4933 3.31678 4.49886 3.39447C4.50995 3.46663 4.5155 3.54156 4.5155 3.61926C4.5155 3.69695 4.51273 3.77466 4.50718 3.85236C4.50718 3.92452 4.50718 3.99112 4.50718 4.05217V8.30635C4.50718 8.36737 4.50718 8.43122 4.50718 8.49784C4.51273 8.55886 4.51273 8.62271 4.50718 8.68933C4.50163 8.75588 4.48497 8.81973 4.45723 8.88082C4.42948 8.93631 4.38785 8.98344 4.33235 9.02235C4.25465 9.08337 4.1492 9.11391 4.01599 9.11391C3.88834 9.11944 3.77733 9.10555 3.68299 9.07224C3.58308 9.03893 3.52204 8.97515 3.49983 8.88082C3.48318 8.78642 3.47486 8.69209 3.47486 8.59769C3.436 7.86511 3.41658 7.14914 3.41658 6.44983C3.42213 5.74495 3.4249 5.02066 3.4249 4.27695C3.41381 4.30469 3.37495 4.32967 3.30835 4.35188C3.2473 4.37408 3.17515 4.3935 3.0919 4.41015C3.0142 4.4268 2.93927 4.44068 2.86711 4.45177C2.79496 4.46287 2.74779 4.46843 2.72558 4.46843C2.58129 4.48508 2.44809 4.4712 2.32598 4.4268C2.20942 4.37685 2.14282 4.26585 2.12617 4.0938C2.10397 3.9162 2.14282 3.77743 2.24273 3.67753C2.34818 3.57763 2.48139 3.50271 2.64233 3.45275C2.81993 3.39171 2.99199 3.33065 3.15849 3.2696C3.33056 3.203 3.50539 3.14472 3.68299 3.09477ZM6.23161 3.28625C6.28156 3.2363 6.34539 3.20577 6.42308 3.19467C6.50633 3.17802 6.60347 3.16969 6.71446 3.16969H8.77081C8.84296 3.16969 8.9234 3.16969 9.0122 3.16969C9.1066 3.16414 9.1954 3.16969 9.2786 3.18635C9.36187 3.203 9.43401 3.23353 9.4951 3.27792C9.56165 3.31678 9.60885 3.3806 9.63663 3.4694C9.65329 3.52491 9.65881 3.58873 9.65329 3.66088C9.65329 3.73304 9.6394 3.80241 9.61161 3.86901C9.58943 3.93006 9.55336 3.98556 9.5034 4.03552C9.45343 4.07991 9.39241 4.10489 9.32027 4.11044C9.17598 4.13819 9.02609 4.14652 8.87067 4.13542C8.71525 4.11877 8.56543 4.11044 8.42114 4.11044C8.2602 4.11044 8.11867 4.116 7.99656 4.12709C7.87445 4.13819 7.73569 4.14375 7.58027 4.14375C7.51925 4.14375 7.4415 4.14097 7.34718 4.13542C7.25284 4.12986 7.18068 4.13542 7.13073 4.15207C7.08633 4.16316 7.05025 4.18537 7.02249 4.21867C7.00029 4.25197 6.98364 4.29083 6.97254 4.33522C6.96145 4.37408 6.9559 4.4157 6.9559 4.4601C6.9559 4.5045 6.9559 4.54335 6.9559 4.57665C6.9559 4.671 6.95034 4.76814 6.93924 4.86804C6.93369 4.96239 6.92815 5.05675 6.9226 5.15109C6.9115 5.27874 6.92815 5.3509 6.97254 5.36755C7.02249 5.37865 7.10575 5.36755 7.2223 5.33425C7.42209 5.2843 7.62747 5.25932 7.83838 5.25932C8.12143 5.25932 8.38507 5.29817 8.62929 5.37588C8.87343 5.44803 9.08434 5.5618 9.26194 5.71721C9.44514 5.86706 9.58667 6.05854 9.6866 6.29164C9.79205 6.5192 9.84471 6.78561 9.84471 7.09087C9.84471 7.14637 9.84194 7.19909 9.83641 7.24905C9.83641 7.299 9.83089 7.34897 9.81976 7.39893C9.7754 7.74853 9.64492 8.0566 9.42849 8.323C9.21205 8.5894 8.93729 8.7809 8.60427 8.8974C8.21023 9.0473 7.80231 9.11668 7.38049 9.10555C6.95867 9.0889 6.57017 8.96679 6.21495 8.73922C6.11505 8.6782 6.02348 8.60606 5.94022 8.52279C5.85697 8.43399 5.79592 8.33406 5.75707 8.22308C5.71267 8.10657 5.69879 7.98722 5.71544 7.86511C5.73764 7.73748 5.81257 7.64308 5.94022 7.58206C6.03457 7.53762 6.1206 7.5238 6.1983 7.54046C6.28156 7.55151 6.35925 7.5793 6.43141 7.62366C6.50356 7.66257 6.57294 7.71246 6.63954 7.77355C6.71169 7.82904 6.78384 7.87624 6.85599 7.91508C6.98364 7.97609 7.11684 8.02882 7.25561 8.07326C7.39438 8.11209 7.54143 8.13151 7.69685 8.13151C8.04092 8.13151 8.31569 8.03995 8.52107 7.85682C8.7319 7.67362 8.83736 7.42664 8.83736 7.11584C8.83736 6.81614 8.72914 6.58303 8.5127 6.41652C8.29627 6.24447 8.00485 6.15844 7.6386 6.15844C7.5442 6.15844 7.44987 6.164 7.35554 6.17509C7.26116 6.18619 7.1668 6.20562 7.07245 6.23337C6.98364 6.25558 6.89485 6.28055 6.80604 6.3083C6.72279 6.33604 6.63954 6.35548 6.55628 6.36658C6.47303 6.37213 6.38978 6.3638 6.30653 6.3416C6.22884 6.31385 6.1539 6.25558 6.08175 6.16677C6.00959 6.08907 5.97352 5.99471 5.97352 5.88371C5.97352 5.77271 5.97908 5.67003 5.99017 5.57568C6.00127 5.41473 6.00959 5.25377 6.01515 5.09281C6.0207 4.93187 6.02902 4.77091 6.04012 4.60996C6.05122 4.449 6.05955 4.29083 6.0651 4.13542C6.0762 3.97447 6.0873 3.81351 6.0984 3.65256C6.10396 3.55821 6.11782 3.48328 6.14003 3.42777C6.16223 3.37227 6.19275 3.32511 6.23161 3.28625Z" fill="#141414"/>
<path d="M24.4408 23.5019C24.5017 23.5741 24.5323 23.649 24.5323 23.7267C24.5323 23.76 24.5296 23.796 24.524 23.8349C24.524 23.8682 24.5213 23.8987 24.5157 23.9264C24.499 23.9875 24.463 24.0457 24.4075 24.1013C24.3631 24.1346 24.3019 24.1595 24.2243 24.1762C24.1854 24.1872 24.1467 24.1956 24.1078 24.2012C24.0689 24.2068 24.0273 24.2151 23.9829 24.2262C23.944 24.2318 23.9052 24.2345 23.8663 24.2345C23.8274 24.2345 23.7858 24.2345 23.7414 24.2345H23.3168C23.2169 24.2401 23.1171 24.2428 23.0171 24.2428C22.9228 24.2428 22.8284 24.2428 22.7341 24.2428C22.7397 24.4149 22.7424 24.6008 22.7424 24.8006C22.7424 24.9948 22.7397 25.2224 22.7341 25.4832C22.7341 25.744 22.7313 26.0467 22.7257 26.3907C22.7257 26.7347 22.7257 27.1344 22.7257 27.5895V28.2222C22.7257 28.2778 22.7285 28.3194 22.7341 28.3471C22.7341 28.3694 22.7341 28.3915 22.7341 28.4137C22.7341 28.4304 22.7313 28.4526 22.7257 28.4803C22.7147 28.5303 22.7064 28.5886 22.7008 28.6552C22.7008 28.6829 22.6981 28.7107 22.6925 28.7384C22.6869 28.7606 22.6785 28.7856 22.6675 28.8134C22.6452 28.8356 22.6342 28.8523 22.6342 28.8633L22.6092 28.9132C22.5815 28.9688 22.5287 29.0215 22.451 29.0714C22.3289 29.1324 22.1929 29.1464 22.0431 29.1131C21.9488 29.102 21.8766 29.077 21.8267 29.0382C21.7767 28.9882 21.7406 28.9382 21.7184 28.8883C21.6851 28.8272 21.6657 28.769 21.6601 28.7134C21.6435 28.6635 21.6352 28.6108 21.6352 28.5552V24.2761C21.6019 24.2761 21.5326 24.2761 21.427 24.2761C21.3215 24.2761 21.2078 24.2761 21.0857 24.2761C20.9691 24.2705 20.8582 24.2651 20.7527 24.2595C20.6472 24.2539 20.5751 24.2484 20.5362 24.2428C20.503 24.2372 20.4502 24.2289 20.3781 24.2179C20.3115 24.2067 20.2559 24.1956 20.2115 24.1846C20.095 24.1513 20.0034 24.0985 19.9369 24.0264C19.8758 23.9542 19.8452 23.8738 19.8452 23.7849C19.8452 23.7516 19.8452 23.7183 19.8452 23.685C19.8452 23.6517 19.8508 23.6211 19.8619 23.5934C19.8785 23.5268 19.9229 23.4713 19.9951 23.427C20.0174 23.4103 20.0507 23.3909 20.095 23.3686C20.1449 23.3409 20.1922 23.3214 20.2365 23.3104C20.3031 23.2881 20.3864 23.2715 20.4863 23.2604C20.5307 23.2548 20.5751 23.2521 20.6195 23.2521C20.6638 23.2521 20.711 23.2521 20.761 23.2521C20.9553 23.2521 21.1384 23.2521 21.3105 23.2521C21.4881 23.2521 21.6741 23.2494 21.8683 23.2438C22.1902 23.2382 22.5093 23.2382 22.8257 23.2438C23.1476 23.2438 23.4667 23.2494 23.783 23.2604C23.8553 23.266 23.9246 23.2744 23.9912 23.2854C24.0578 23.2965 24.1244 23.316 24.191 23.3437C24.2409 23.3603 24.2882 23.3826 24.3325 23.4103C24.3769 23.4326 24.4131 23.463 24.4408 23.5019ZM29.5905 23.6517C29.5961 23.6906 29.5989 23.7267 29.5989 23.76C29.5989 23.7932 29.5989 23.8265 29.5989 23.8598V24.2012L29.5489 28.5219V28.6052C29.5489 28.6385 29.5406 28.6885 29.5239 28.7551C29.5184 28.7827 29.51 28.8134 29.499 28.8467C29.4879 28.8744 29.4767 28.9049 29.4657 28.9382C29.4379 29.0048 29.399 29.0547 29.3491 29.088C29.3048 29.1324 29.2326 29.163 29.1326 29.1797C28.9772 29.2129 28.8357 29.199 28.708 29.138C28.6359 29.0936 28.5859 29.0382 28.5582 28.9715C28.5472 28.9605 28.536 28.9438 28.5249 28.9216C28.5249 28.9105 28.5193 28.8939 28.5083 28.8716C28.4972 28.8439 28.4889 28.816 28.4833 28.7883C28.4777 28.7551 28.4722 28.7218 28.4667 28.6885C28.4667 28.6608 28.4639 28.6329 28.4583 28.6052C28.4583 28.5775 28.4556 28.5496 28.45 28.5219C28.439 28.4942 28.4334 28.472 28.4334 28.4554C28.4334 28.4331 28.4334 28.4081 28.4334 28.3804C28.4444 28.3582 28.45 28.3166 28.45 28.2555L28.4583 27.5979L28.4667 26.5489H28.0171L26.327 26.5572L26.3104 28.5219V28.6052C26.3104 28.6385 26.3021 28.6885 26.2854 28.7551C26.2798 28.7827 26.2715 28.8134 26.2605 28.8467C26.2494 28.8744 26.2382 28.9049 26.2272 28.9382C26.1995 29.0048 26.1606 29.0547 26.1106 29.088C26.0662 29.1324 25.9941 29.163 25.8942 29.1797C25.7387 29.2129 25.5971 29.199 25.4696 29.138C25.414 29.1047 25.3614 29.0492 25.3114 28.9715C25.3003 28.9493 25.2947 28.9326 25.2947 28.9216L25.2697 28.8716C25.2587 28.8439 25.2504 28.816 25.2448 28.7883C25.2392 28.7551 25.2337 28.7218 25.2281 28.6885C25.2281 28.6608 25.2254 28.6329 25.2198 28.6052C25.2142 28.5775 25.2088 28.5496 25.2032 28.5219C25.1976 28.4776 25.1976 28.4304 25.2032 28.3804V28.2555L25.2115 27.5979L25.2281 26.3741C25.2337 26.1965 25.2365 26.0134 25.2365 25.8246C25.2365 25.6358 25.2365 25.4416 25.2365 25.2419C25.2309 25.042 25.2281 24.8645 25.2281 24.709C25.2337 24.5536 25.2421 24.3787 25.2531 24.1846V24.1512C25.2587 24.0957 25.2614 24.0403 25.2614 23.9847C25.2614 23.9237 25.2642 23.8626 25.2697 23.8016C25.2753 23.746 25.2837 23.6934 25.2947 23.6434C25.3114 23.5878 25.3337 23.5324 25.3614 23.4769C25.378 23.4326 25.4002 23.3963 25.4279 23.3686C25.4556 23.3354 25.4889 23.3048 25.5278 23.2771C25.6167 23.2327 25.7054 23.2104 25.7942 23.2104C25.8386 23.2104 25.8775 23.2132 25.9108 23.2188C25.9441 23.2188 25.9774 23.2216 26.0107 23.2271C26.0773 23.2327 26.1411 23.266 26.2022 23.327C26.2465 23.3659 26.2771 23.4103 26.2937 23.4603C26.3214 23.5324 26.3381 23.5962 26.3437 23.6517C26.3493 23.6906 26.3521 23.7267 26.3521 23.76C26.3521 23.7932 26.3521 23.8265 26.3521 23.8598V24.2012L26.3354 25.5748C26.3798 25.5748 26.4297 25.5748 26.4852 25.5748C26.5462 25.5748 26.6157 25.5721 26.6934 25.5665C26.982 25.5665 27.2678 25.5692 27.5509 25.5748C27.8395 25.5804 28.1419 25.5832 28.4583 25.5832H28.4667C28.4667 25.3334 28.4667 25.0947 28.4667 24.8672C28.4722 24.6397 28.4806 24.401 28.4916 24.1512C28.4916 24.0957 28.4916 24.0403 28.4916 23.9847C28.4972 23.9237 28.5027 23.8626 28.5083 23.8016C28.5139 23.746 28.5222 23.6934 28.5332 23.6434C28.5499 23.5878 28.5721 23.5324 28.5998 23.4769C28.6109 23.4326 28.6304 23.3963 28.6581 23.3686C28.6914 23.3354 28.7303 23.3048 28.7747 23.2771C28.8523 23.2327 28.9385 23.2104 29.0328 23.2104C29.0771 23.2104 29.116 23.2132 29.1493 23.2188C29.1882 23.2188 29.2215 23.2216 29.2492 23.2271C29.3269 23.2382 29.3907 23.2715 29.4407 23.327C29.4851 23.3547 29.5156 23.3992 29.5323 23.4603C29.5433 23.4936 29.5516 23.5268 29.5572 23.5601C29.5683 23.5878 29.5795 23.6185 29.5905 23.6517Z" fill="#141414"/>
</g>
</g>
<defs>
<clipPath id="clip0_226_77181">
<rect width="32" height="32" fill="white"/>
</clipPath>
</defs>
</svg>
