<svg width="188" height="164" viewBox="0 0 188 164" fill="none" xmlns="http://www.w3.org/2000/svg">
<g filter="url(#filter0_d_226_84409)">
<path fill-rule="evenodd" clip-rule="evenodd" d="M91.0486 27.3335H96.9512C98.6759 27.3333 100.355 27.3331 101.778 27.4493C103.34 27.5769 105.183 27.8781 107.038 28.8231C109.609 30.1334 111.7 32.2241 113.01 34.7957C113.955 36.6504 114.257 38.4936 114.384 40.0556C114.409 40.3594 114.428 40.675 114.444 41.0002L143.662 41.0002C146.025 36.9152 150.441 34.1669 155.5 34.1669C163.048 34.1669 169.167 40.2856 169.167 47.8335C169.167 55.3814 163.048 61.5002 155.5 61.5002C150.441 61.5002 146.025 58.7518 143.662 54.6669H132.657C144.935 64.6002 153.312 79.1641 155.129 95.7074C155.586 95.7244 156.027 95.7485 156.445 95.7826C158.007 95.9103 159.85 96.2114 161.704 97.1564C164.276 98.4667 166.367 100.557 167.677 103.129C168.622 104.984 168.923 106.827 169.051 108.389C169.167 109.811 169.167 111.491 169.167 113.215V119.118C169.167 120.843 169.167 122.522 169.051 123.945C168.923 125.507 168.622 127.35 167.677 129.205C166.367 131.776 164.276 133.867 161.704 135.177C159.85 136.122 158.007 136.423 156.445 136.551C155.022 136.667 153.342 136.667 151.618 136.667H145.715C143.991 136.667 142.311 136.667 140.889 136.551C139.327 136.423 137.483 136.122 135.629 135.177C133.057 133.867 130.966 131.776 129.656 129.205C128.711 127.35 128.41 125.507 128.282 123.945C128.166 122.522 128.166 120.843 128.167 119.118V113.216C128.166 111.491 128.166 109.811 128.282 108.389C128.41 106.827 128.711 104.984 129.656 103.129C130.966 100.557 133.057 98.4667 135.629 97.1564C137.483 96.2114 139.327 95.9103 140.889 95.7826C141.043 95.77 141.2 95.7588 141.36 95.7488C139.04 79.3237 128.375 65.5724 113.787 58.9359C113.594 59.5719 113.342 60.2209 113.01 60.8714C111.7 63.4429 109.609 65.5337 107.038 66.844C105.183 67.789 103.34 68.0901 101.778 68.2177C100.355 68.334 98.6759 68.3338 96.9512 68.3335H91.0486C89.324 68.3338 87.6445 68.334 86.222 68.2177C84.66 68.0901 82.8168 67.789 80.9621 66.844C78.3905 65.5337 76.2998 63.4429 74.9895 60.8714C74.6581 60.2209 74.4059 59.5719 74.2125 58.9359C59.6252 65.5724 48.9602 79.3237 46.6394 95.7488C46.7995 95.7588 46.9569 95.77 47.1112 95.7826C48.6732 95.9103 50.5164 96.2114 52.3712 97.1564C54.9427 98.4667 57.0334 100.557 58.3437 103.129C59.2887 104.984 59.5899 106.827 59.7175 108.389C59.8337 109.811 59.8335 111.491 59.8333 113.216V119.118C59.8335 120.843 59.8337 122.522 59.7175 123.945C59.5899 125.507 59.2887 127.35 58.3437 129.205C57.0334 131.776 54.9427 133.867 52.3712 135.177C50.5164 136.122 48.6732 136.423 47.1112 136.551C45.6887 136.667 44.0091 136.667 42.2845 136.667H36.3821C34.6574 136.667 32.9778 136.667 31.5554 136.551C29.9933 136.423 28.1501 136.122 26.2954 135.177C23.7239 133.867 21.6331 131.776 20.3229 129.205C19.3778 127.35 19.0767 125.507 18.9491 123.945C18.8329 122.522 18.8331 120.843 18.8333 119.118V113.216C18.8331 111.491 18.8329 109.811 18.9491 108.389C19.0767 106.827 19.3778 104.984 20.3229 103.129C21.6331 100.557 23.7239 98.4667 26.2954 97.1564C28.1501 96.2114 29.9933 95.9103 31.5554 95.7826C31.9734 95.7485 32.4136 95.7244 32.8707 95.7074C34.6878 79.1641 43.0652 64.6002 55.3429 54.6669H44.3383C41.9752 58.7518 37.5585 61.5002 32.5 61.5002C24.9521 61.5002 18.8333 55.3814 18.8333 47.8335C18.8333 40.2856 24.9521 34.1669 32.5 34.1669C37.5585 34.1669 41.9752 36.9152 44.3383 41.0002L73.5561 41.0002C73.5714 40.675 73.5909 40.3594 73.6157 40.0556C73.7434 38.4936 74.0445 36.6504 74.9895 34.7957C76.2998 32.2241 78.3905 30.1334 80.9621 28.8231C82.8168 27.8781 84.66 27.5769 86.222 27.4493C87.6445 27.3331 89.324 27.3333 91.0486 27.3335ZM87.1666 49.4104V45.1002C87.1666 43.0739 87.1719 41.9652 87.237 41.1685C87.2396 41.1368 87.2422 41.1068 87.2449 41.0784C87.2732 41.0758 87.3032 41.0732 87.3349 41.0706C88.1316 41.0055 89.2403 41.0002 91.2666 41.0002H96.7333C98.7595 41.0002 99.8683 41.0055 100.665 41.0706C100.697 41.0732 100.727 41.0758 100.755 41.0784C100.758 41.1068 100.76 41.1368 100.763 41.1685C100.828 41.9652 100.833 43.0739 100.833 45.1002V49.4104C100.831 49.5104 100.831 49.6102 100.833 49.7096V50.5669C100.833 52.5931 100.828 53.7019 100.763 54.4985C100.76 54.5303 100.758 54.5603 100.755 54.5886C100.727 54.5913 100.697 54.5939 100.665 54.5965C99.8683 54.6616 98.7595 54.6669 96.7333 54.6669H91.2666C89.2403 54.6669 88.1316 54.6616 87.3349 54.5965C87.3032 54.5939 87.2732 54.5913 87.2449 54.5886C87.2422 54.5603 87.2396 54.5303 87.237 54.4985C87.1719 53.7019 87.1666 52.5931 87.1666 50.5669V49.7096C87.1688 49.6102 87.1688 49.5104 87.1666 49.4104ZM32.5782 109.412C32.5756 109.44 32.5729 109.47 32.5704 109.502C32.5053 110.299 32.5 111.407 32.5 113.434V118.9C32.5 120.926 32.5053 122.035 32.5704 122.832C32.5729 122.864 32.5756 122.894 32.5782 122.922C32.6065 122.925 32.6366 122.927 32.6683 122.93C33.465 122.995 34.5737 123 36.6 123H42.0666C44.0929 123 45.2016 122.995 45.9983 122.93C46.03 122.927 46.06 122.925 46.0884 122.922C46.091 122.894 46.0936 122.864 46.0962 122.832C46.1613 122.035 46.1666 120.926 46.1666 118.9V113.434C46.1666 111.407 46.1613 110.299 46.0962 109.502C46.0936 109.47 46.091 109.44 46.0884 109.412C46.06 109.409 46.03 109.407 45.9983 109.404C45.2016 109.339 44.0929 109.334 42.0666 109.334H36.6C34.5737 109.334 33.465 109.339 32.6683 109.404C32.6366 109.407 32.6065 109.409 32.5782 109.412ZM141.912 109.412C141.909 109.44 141.906 109.47 141.904 109.502C141.839 110.299 141.833 111.407 141.833 113.434V118.9C141.833 120.926 141.839 122.035 141.904 122.832C141.906 122.864 141.909 122.894 141.912 122.922C141.94 122.925 141.97 122.927 142.002 122.93C142.798 122.995 143.907 123 145.933 123H151.4C153.426 123 154.535 122.995 155.332 122.93C155.363 122.927 155.393 122.925 155.422 122.922C155.424 122.894 155.427 122.864 155.43 122.832C155.495 122.035 155.5 120.926 155.5 118.9V113.434C155.5 111.407 155.495 110.299 155.43 109.502C155.427 109.47 155.424 109.44 155.422 109.412C155.393 109.409 155.363 109.407 155.332 109.404C154.535 109.339 153.426 109.334 151.4 109.334H145.933C143.907 109.334 142.798 109.339 142.002 109.404C141.97 109.407 141.94 109.409 141.912 109.412Z" fill="#FFD600"/>
</g>
<defs>
<filter id="filter0_d_226_84409" x="0.833252" y="9.3335" width="186.333" height="145.333" filterUnits="userSpaceOnUse" color-interpolation-filters="sRGB">
<feFlood flood-opacity="0" result="BackgroundImageFix"/>
<feColorMatrix in="SourceAlpha" type="matrix" values="0 0 0 0 0 0 0 0 0 0 0 0 0 0 0 0 0 0 127 0" result="hardAlpha"/>
<feOffset/>
<feGaussianBlur stdDeviation="9"/>
<feComposite in2="hardAlpha" operator="out"/>
<feColorMatrix type="matrix" values="0 0 0 0 1 0 0 0 0 0.839216 0 0 0 0 0 0 0 0 0.5 0"/>
<feBlend mode="normal" in2="BackgroundImageFix" result="effect1_dropShadow_226_84409"/>
<feBlend mode="normal" in="SourceGraphic" in2="effect1_dropShadow_226_84409" result="shape"/>
</filter>
</defs>
</svg>
