<svg width="164" height="164" viewBox="0 0 164 164" fill="none" xmlns="http://www.w3.org/2000/svg">
<g clip-path="url(#clip0_226_84425)">
<g filter="url(#filter0_d_226_84425)">
<path fill-rule="evenodd" clip-rule="evenodd" d="M63.1308 30.6152C49.2781 26.5409 39.232 28.4153 33.8233 33.8239C28.4147 39.2326 26.5403 49.2787 30.6146 63.1314C34.6059 76.7018 43.9548 92.2743 57.9828 106.302C65.7626 114.082 74.0174 120.423 82.1423 125.209C90.2672 120.423 98.522 114.082 106.302 106.302C108.233 104.371 110.079 102.407 111.836 100.421C114.336 97.5938 118.655 97.329 121.481 99.8292C124.308 102.329 124.573 106.648 122.073 109.475C120.131 111.671 118.094 113.838 115.966 115.966C109.791 122.14 103.265 127.57 96.6168 132.163C98.1501 132.73 99.664 133.232 101.154 133.671C115.007 137.745 125.053 135.87 130.461 130.462C135.87 125.053 137.744 115.007 133.67 101.154C132.231 96.2624 130.096 91.1103 127.297 85.8641C127.11 85.5729 126.945 85.2687 126.805 84.9546C121.869 75.9329 114.981 66.6626 106.302 57.9834C98.522 50.2036 90.2672 43.863 82.1423 39.0773C74.0174 43.863 65.7626 50.2036 57.9828 57.9834C55.9638 60.0024 54.0387 62.0567 52.2102 64.1356C49.7179 66.9695 45.4001 67.2463 42.5662 64.754C39.7324 62.2616 39.4555 57.9439 41.9479 55.11C43.9695 52.8114 46.0943 50.5444 48.319 48.3196C54.4933 42.1454 61.0192 36.7159 67.6679 32.1226C66.1345 31.5561 64.6206 31.0534 63.1308 30.6152ZM82.1423 23.5311C77.0324 20.9852 71.9469 18.9627 66.9871 17.5039C51.1102 12.8342 34.7624 13.5573 24.1595 24.1602C13.5567 34.763 12.8336 51.1108 17.5033 66.9877C18.9621 71.9476 20.9847 77.0332 23.5307 82.1432C18.4075 92.4264 15.322 102.774 14.825 112.287C14.275 122.816 16.9071 132.873 24.1595 140.126C34.7624 150.729 51.1102 151.452 66.9871 146.782C71.9469 145.323 77.0324 143.301 82.1423 140.755C87.2522 143.301 92.3377 145.323 97.2975 146.782C113.174 151.452 129.522 150.729 140.125 140.126C150.728 129.523 151.451 113.175 146.781 97.2981C145.322 92.3382 143.3 87.2527 140.754 82.1427C145.873 71.867 148.958 61.527 149.458 52.0205C150.013 41.484 147.383 31.4176 140.125 24.1602C129.522 13.5573 113.174 12.8342 97.2975 17.5039C92.3377 18.9627 87.2522 20.9852 82.1423 23.5311ZM96.6168 32.1226C103.265 36.7159 109.791 42.1454 115.966 48.3196C122.14 54.4939 127.569 61.0199 132.163 67.6686C134.341 61.7711 135.551 56.2318 135.811 51.302C136.229 43.356 134.188 37.5511 130.461 33.8239C125.053 28.4153 115.007 26.5409 101.154 30.6152C99.664 31.0534 98.1501 31.5562 96.6168 32.1226ZM67.6679 132.163C61.0192 127.57 54.4933 122.14 48.319 115.966C42.1447 109.792 36.7153 103.266 32.1219 96.6172C29.9411 102.521 28.7308 108.066 28.4731 113C28.0584 120.938 30.0987 126.737 33.8233 130.462C39.232 135.87 49.2781 137.745 63.1308 133.671C64.6206 133.232 66.1345 132.73 67.6679 132.163ZM68.3334 82.0002C68.3334 74.4523 74.4522 68.3335 82.0001 68.3335C89.548 68.3335 95.6667 74.4523 95.6667 82.0002C95.6667 89.5481 89.548 95.6669 82.0001 95.6669C74.4522 95.6669 68.3334 89.5481 68.3334 82.0002Z" fill="#BAFF00"/>
</g>
</g>
<defs>
<filter id="filter0_d_226_84425" x="-3.24536" y="-3.23779" width="170.775" height="170.761" filterUnits="userSpaceOnUse" color-interpolation-filters="sRGB">
<feFlood flood-opacity="0" result="BackgroundImageFix"/>
<feColorMatrix in="SourceAlpha" type="matrix" values="0 0 0 0 0 0 0 0 0 0 0 0 0 0 0 0 0 0 127 0" result="hardAlpha"/>
<feOffset/>
<feGaussianBlur stdDeviation="9"/>
<feComposite in2="hardAlpha" operator="out"/>
<feColorMatrix type="matrix" values="0 0 0 0 0.729412 0 0 0 0 1 0 0 0 0 0 0 0 0 0.5 0"/>
<feBlend mode="normal" in2="BackgroundImageFix" result="effect1_dropShadow_226_84425"/>
<feBlend mode="normal" in="SourceGraphic" in2="effect1_dropShadow_226_84425" result="shape"/>
</filter>
<clipPath id="clip0_226_84425">
<rect width="164" height="164" fill="white"/>
</clipPath>
</defs>
</svg>
