<svg width="48" height="48" viewBox="0 0 48 48" fill="none" xmlns="http://www.w3.org/2000/svg">
<path fill-rule="evenodd" clip-rule="evenodd" d="M13.5174 4L34.4826 4C36.0925 3.99998 37.4213 3.99996 38.5037 4.08839C39.6278 4.18024 40.6613 4.37737 41.6319 4.87195C43.1372 5.63894 44.3611 6.86278 45.1281 8.36808C45.6226 9.33875 45.8198 10.3722 45.9116 11.4964C46 12.5787 46 13.9074 46 15.5174V32.4826C46 34.0926 46 35.4213 45.9116 36.5037C45.8198 37.6278 45.6226 38.6613 45.1281 39.6319C44.3611 41.1372 43.1372 42.3611 41.6319 43.1281C40.6613 43.6226 39.6278 43.8198 38.5037 43.9116C37.4213 44 36.0926 44 34.4827 44H13.5175C11.9075 44 10.5788 44 9.49635 43.9116C8.37215 43.8198 7.33875 43.6226 6.36808 43.128C4.86278 42.3611 3.63894 41.1372 2.87195 39.6319C2.37737 38.6612 2.18024 37.6278 2.08839 36.5036C1.99995 35.4213 1.99998 34.0925 2 32.4826L2 18.0013C2 18.0009 2 18.0018 2 18.0013C2 18.0009 2 17.9991 2 17.9987L2 15.5174C1.99998 13.9075 1.99995 12.5787 2.08839 11.4963C2.18024 10.3722 2.37737 9.33875 2.87195 8.36808C3.63894 6.86278 4.86278 5.63894 6.36808 4.87195C7.33875 4.37737 8.37216 4.18024 9.49635 4.08839C10.5787 3.99995 11.9075 3.99998 13.5174 4ZM6 20V32.4C6 34.1132 6.00156 35.2777 6.0751 36.1779C6.14674 37.0548 6.2766 37.5032 6.43598 37.816C6.81947 38.5686 7.43139 39.1805 8.18404 39.564C8.49684 39.7234 8.94525 39.8533 9.82208 39.9249C10.7223 39.9984 11.8868 40 13.6 40H34.4C36.1132 40 37.2777 39.9984 38.1779 39.9249C39.0548 39.8533 39.5032 39.7234 39.816 39.564C40.5686 39.1805 41.1805 38.5686 41.564 37.816C41.7234 37.5032 41.8533 37.0548 41.9249 36.1779C41.9984 35.2777 42 34.1132 42 32.4V20H6ZM42 16H6V15.6C6 13.8868 6.00156 12.7223 6.07511 11.8221C6.14674 10.9452 6.2766 10.4968 6.43598 10.184C6.81947 9.43139 7.43139 8.81947 8.18404 8.43598C8.49684 8.2766 8.94525 8.14674 9.82208 8.0751C10.7223 8.00156 11.8868 8 13.6 8L34.4 8C36.1132 8 37.2777 8.00156 38.1779 8.07511C39.0548 8.14675 39.5032 8.2766 39.816 8.43598C40.5686 8.81947 41.1805 9.4314 41.564 10.184C41.7234 10.4968 41.8533 10.9452 41.9249 11.8221C41.9984 12.7223 42 13.8868 42 15.6V16Z" fill="#FFD600"/>
</svg>
